#!OML:ASF X:\für Bonn\!DataBase\2005_08_10_Bjorn_Final\c3d\bjorn.ASF
:FULLY-SPECIFIED
:DEGREES
287
root -1.3988 17.7199 11.7696 -1498.51 81.4089 -60.4878
lowerback 0.924081 2.60672 3.71084
upperback 7.93905 3.85169 -3.05696
thorax 8.305 2.41136 -5.04662
lowerneck -4.52803 2.0434 3.5079
upperneck 5.64601 2.53673 -0.513323
head 2.63427 1.32868 -0.675926
rclavicle 1.27222e-014 1.27222e-014
rhumerus -39.7935 10.7203 -105.142
rradius 77.5733
rwrist 8.90601
rhand -29.6188 33.8835
rfingers 7.12502
rthumb -2.94935 3.92419
lclavicle 1.27222e-014 1.27222e-014
lhumerus -43.4917 -21.6209 93.0219
lradius 84.6409
lwrist -7.05545
lhand -46.7122 -23.46
lfingers 7.12502
lthumb -19.4306 5.58917
rfemur 4.43883 -4.5942 6.73271
rtibia 62.6229
rfoot 5.32299 6.49937
rtoes -28.1889
lfemur -25.6507 1.11139 -32.2042
ltibia 48.2422
lfoot -20.6367 6.12775
ltoes 16.5838
288
root -1.12044 17.6517 11.8034 -1502.76 82.0534 -64.826
lowerback 0.88175 2.44289 3.5573
upperback 8.1191 3.67171 -3.28516
thorax 8.51287 2.33813 -5.21284
lowerneck -4.78387 2.06868 3.46035
upperneck 5.19765 2.54939 -0.296508
head 2.52679 1.33486 -0.596784
rclavicle 4.05521e-014 -3.49861e-014
rhumerus -40.0454 9.73538 -104.589
rradius 76.6335
rwrist 8.31172
rhand -29.9419 33.3709
rfingers 7.12502
rthumb -3.26133 3.41612
lclavicle 4.05521e-014 -3.49861e-014
lhumerus -41.7442 -21.7111 92.573
lradius 84.3916
lwrist -7.15106
lhand -46.4491 -23.4161
lfingers 7.12502
lthumb -19.1776 5.65833
rfemur 2.35595 -4.96384 6.11315
rtibia 65.5597
rfoot 4.03133 6.61559
rtoes -30.338
lfemur -24.9811 0.254081 -32.5951
ltibia 49.0849
lfoot -21.5455 6.42066
ltoes 15.9515
289
root -0.841881 17.5874 11.8351 -1507.45 82.6673 -69.6271
lowerback 0.807884 2.27189 3.32216
upperback 8.27412 3.47957 -3.46567
thorax 8.69991 2.24847 -5.28308
lowerneck -4.88833 2.10098 3.34293
upperneck 4.75129 2.58762 -0.123595
head 2.39246 1.35142 -0.52041
rclavicle -4.69132e-014 5.08889e-014
rhumerus -40.4702 8.89383 -103.997
rradius 75.6863
rwrist 8.10071
rhand -30.3684 32.4207
rfingers 7.12502
rthumb -3.67318 2.47262
lclavicle -4.69132e-014 5.08889e-014
lhumerus -40.0094 -21.7845 92.2111
lradius 84.1538
lwrist -7.21075
lhand -46.1573 -23.2298
lfingers 7.12502
lthumb -18.897 5.87226
rfemur 0.16255 -5.39415 5.41528
rtibia 68.3935
rfoot 2.58435 6.76742
rtoes -32.8689
lfemur -24.2403 -0.5154 -33.007
ltibia 49.7676
lfoot -22.5216 6.46254
ltoes 15.816
290
root -0.562273 17.5265 11.8648 -1512.98 83.22 -75.2715
lowerback 0.707761 2.08249 3.03506
upperback 8.42529 3.25833 -3.57286
thorax 8.88578 2.13556 -5.24744
lowerneck -4.8579 2.14176 3.07816
upperneck 4.27024 2.65394 0.0622167
head 2.22013 1.37959 -0.415707
rclavicle -2.54444e-014 -1.74931e-014
rhumerus -40.9798 8.17102 -103.306
rradius 74.7051
rwrist 8.06437
rhand -30.6766 31.3619
rfingers 7.12502
rthumb -3.97089 1.41913
lclavicle -2.54444e-014 -1.74931e-014
lhumerus -38.4351 -21.8302 92.0116
lradius 84.0911
lwrist -7.25626
lhand -45.9257 -23.2211
lfingers 7.12502
lthumb -18.6743 5.90257
rfemur -2.05275 -5.88828 4.69702
rtibia 71.0597
rfoot 1.43136 6.78891
rtoes -34.9105
lfemur -23.3928 -1.19253 -33.4035
ltibia 50.2796
lfoot -23.4838 6.32324
ltoes 15.988
291
root -0.282245 17.4724 11.8932 -1519.14 83.6699 -81.5262
lowerback 0.603657 1.87512 2.69148
upperback 8.55498 3.00834 -3.61658
thorax 9.04002 1.99798 -5.11481
lowerneck -4.70897 2.21265 2.79661
upperneck 3.82203 2.76907 0.192392
head 2.0396 1.4311 -0.326289
rclavicle -2.38542e-014 1.43125e-014
rhumerus -41.6152 7.60039 -102.57
rradius 73.828
rwrist 8.07381
rhand -30.8434 30.4713
rfingers 7.12502
rthumb -4.13189 0.531633
lclavicle -2.38542e-014 1.43125e-014
lhumerus -37.0582 -21.7766 91.915
lradius 84.1871
lwrist -7.41781
lhand -45.8359 -23.3905
lfingers 7.12502
lthumb -18.5879 5.7414
rfemur -4.28835 -6.34361 4.04642
rtibia 73.4959
rfoot 0.395096 6.72378
rtoes -35.51
lfemur -22.4313 -1.72012 -33.7495
ltibia 50.5762
lfoot -24.4689 6.09334
ltoes 15.9464
292
root 0.00160454 17.4307 11.9192 -1526.29 84.0332 -88.7643
lowerback 0.492106 1.64894 2.31888
upperback 8.69209 2.73536 -3.64886
thorax 9.20519 1.84609 -4.95607
lowerneck -4.67562 2.30322 2.60435
upperneck 3.56945 2.90219 0.259395
head 1.94781 1.49376 -0.270037
rclavicle -7.15625e-015 -4.13472e-014
rhumerus -42.2953 7.07684 -101.833
rradius 73.1119
rwrist 8.08059
rhand -30.8258 29.9973
rfingers 7.12502
rthumb -4.11491 0.0572884
lclavicle -7.15625e-015 -4.13472e-014
lhumerus -35.7018 -21.7172 91.851
lradius 84.3326
lwrist -7.53654
lhand -45.8731 -24.0721
lfingers 7.12502
lthumb -18.6236 5.05638
rfemur -6.48076 -6.81791 3.45311
rtibia 75.6277
rfoot -0.584395 6.61898
rtoes -34.3478
lfemur -21.297 -2.19417 -34.0512
ltibia 50.6122
lfoot -25.427 5.77992
ltoes 15.8792
293
root 0.288622 17.4034 11.9416 -1534.12 84.2692 -96.6835
lowerback 0.358697 1.39891 1.91636
upperback 8.83694 2.42843 -3.63113
thorax 9.38777 1.67175 -4.73003
lowerneck -4.76722 2.429 2.3811
upperneck 3.53499 3.07999 0.298978
head 1.95014 1.57971 -0.213226
rclavicle 5.56597e-015 -7.95139e-015
rhumerus -42.9862 6.67512 -101.066
rradius 72.5227
rwrist 8.10422
rhand -30.7778 29.9512
rfingers 7.12502
rthumb -4.06859 0.0103278
lclavicle 5.56597e-015 -7.95139e-015
lhumerus -34.3998 -21.5802 91.8625
lradius 84.6063
lwrist -7.70866
lhand -45.9741 -24.764
lfingers 7.12502
lthumb -18.7207 4.35516
rfemur -8.63879 -7.26817 2.97451
rtibia 77.3838
rfoot -1.22727 6.41802
rtoes -31.9567
lfemur -19.9913 -2.58892 -34.2953
ltibia 50.3488
lfoot -26.2672 5.30422
ltoes 16.1059
294
root 0.580205 17.3929 11.9579 -1542.24 84.3485 -104.87
lowerback 0.220806 1.12915 1.56399
upperback 8.99579 2.09669 -3.62575
thorax 9.59524 1.49025 -4.54953
lowerneck -4.99555 2.58481 2.28646
upperneck 3.68963 3.2872 0.286685
head 2.04266 1.68248 -0.19011
rclavicle 1.98785e-014 -2.06736e-014
rhumerus -43.6723 6.39568 -100.392
rradius 72.0122
rwrist 8.13293
rhand -30.7871 30.2351
rfingers 7.12502
rthumb -4.07753 0.294377
lclavicle 1.98785e-014 -2.06736e-014
lhumerus -33.0548 -21.5269 91.7823
lradius 84.9607
lwrist -7.79707
lhand -46.0908 -25.3186
lfingers 7.12502
lthumb -18.833 3.78965
rfemur -10.7262 -7.69909 2.63209
rtibia 78.737
rfoot -1.51575 6.43191
rtoes -28.7524
lfemur -18.504 -2.90413 -34.4694
ltibia 49.7723
lfoot -26.9155 4.67901
ltoes 16.5556
295
root 0.876872 17.3976 11.9702 -1550.21 84.2905 -112.936
lowerback 0.0580224 0.85498 1.18546
upperback 9.11755 1.75451 -3.58613
thorax 9.77758 1.29634 -4.31974
lowerneck -5.18987 2.74997 2.24201
upperneck 3.97443 3.50692 0.216816
head 2.17462 1.79132 -0.191908
rclavicle 2.70347e-014 -1.43125e-014
rhumerus -44.4128 6.21157 -99.7148
rradius 71.6232
rwrist 8.16698
rhand -30.7601 30.7444
rfingers 7.12502
rthumb -4.05151 0.803191
lclavicle 2.70347e-014 -1.43125e-014
lhumerus -31.8555 -21.4909 91.7903
lradius 85.4711
lwrist -7.94034
lhand -46.1649 -25.5322
lfingers 7.12502
lthumb -18.9043 3.56915
rfemur -12.8107 -8.13565 2.43206
rtibia 79.7687
rfoot -1.72253 6.70786
rtoes -25.5005
lfemur -16.8844 -3.18626 -34.5843
ltibia 48.8969
lfoot -27.3955 3.99489
ltoes 16.8578
296
root 1.17731 17.4199 11.9775 -1557.25 84.0379 -120.133
lowerback -0.177518 0.567627 0.866969
upperback 9.23407 1.38595 -3.49307
thorax 10.0014 1.09012 -4.07039
lowerneck -5.48984 2.94457 2.21019
upperneck 4.35606 3.76432 0.116169
head 2.36048 1.91834 -0.200903
rclavicle -4.77083e-015 -4.77083e-015
rhumerus -45.1352 6.18657 -99.102
rradius 71.4278
rwrist 8.04
rhand -30.5523 31.2731
rfingers 7.12502
rthumb -3.85077 1.32817
lclavicle -4.77083e-015 -4.77083e-015
lhumerus -30.7046 -21.4458 91.8461
lradius 86.036
lwrist -8.21507
lhand -46.2231 -25.4746
lfingers 7.12502
lthumb -18.9603 3.62128
rfemur -14.9803 -8.64309 2.48096
rtibia 80.552
rfoot -2.13407 6.93271
rtoes -24.4426
lfemur -15.2173 -3.41504 -34.5525
ltibia 47.771
lfoot -27.6718 3.28176
ltoes 17.2251
297
root 1.47864 17.4545 11.9845 -1562.98 83.6469 -126.095
lowerback -0.481509 0.279545 0.592902
upperback 9.30746 1.00675 -3.36578
thorax 10.2235 0.877294 -3.81286
lowerneck -5.73656 3.13922 2.17889
upperneck 4.76253 4.02547 0.0024571
head 2.54692 2.04628 -0.213455
rclavicle 1.43125e-014 -7.95139e-015
rhumerus -45.8845 6.30426 -98.564
rradius 71.4194
rwrist 7.78086
rhand -30.198 31.6627
rfingers 7.12502
rthumb -3.50865 1.71187
lclavicle 1.43125e-014 -7.95139e-015
lhumerus -29.6697 -21.3977 91.9443
lradius 86.6423
lwrist -8.47271
lhand -46.2968 -25.5182
lfingers 7.12502
lthumb -19.0312 3.5707
rfemur -17.2824 -9.15305 2.77506
rtibia 81.112
rfoot -2.67122 7.11286
rtoes -25.2464
lfemur -13.5684 -3.54436 -34.3813
ltibia 46.453
lfoot -27.7785 2.50533
ltoes 17.338
298
root 1.78062 17.4966 11.9886 -1567.34 83.1428 -130.772
lowerback -0.86441 -0.0101454 0.391324
upperback 9.34634 0.614779 -3.20729
thorax 10.4604 0.660327 -3.56749
lowerneck -5.93851 3.34591 2.2479
upperneck 5.15376 4.30347 -0.214987
head 2.72738 2.18026 -0.27552
rclavicle -1.59028e-015 3.18055e-015
rhumerus -46.5944 6.55086 -98.101
rradius 71.4439
rwrist 7.4198
rhand -29.9053 31.9277
rfingers 7.12502
rthumb -3.226 1.9724
lclavicle -1.59028e-015 3.18055e-015
lhumerus -28.7646 -21.4302 92.058
lradius 87.2622
lwrist -8.65336
lhand -46.4013 -25.6938
lfingers 7.12502
lthumb -19.1317 3.38521
rfemur -19.6845 -9.64607 3.2661
rtibia 81.4188
rfoot -3.31589 7.28273
rtoes -26.5481
lfemur -11.9818 -3.60122 -34.0808
ltibia 45.0033
lfoot -27.7009 1.82327
ltoes 16.7262
